# xmcd CD Database Entry
#
# Track frame offsets:
# 150
# 13689
# 27675
# 39678
# 53281
# 69689
# 86169
# 96378
# 106611
# 119599
# 129471
#
# Disc length: 1871 seconds
#
# Revision: 2
# Processed by: cddbd v1.4PL0 Copyright (c) Steve Scherf et al.
# Submitted via: tcd 2.0b
#
DISCID=94074d0b
DTITLE=The Barrymores - The Barrymores
DYEAR=1900
DGENRE=
TTITLE0=Song One
TTITLE1=The Way Its Supposed To Be
TTITLE2=My Girlfriend's Got Bigger Balls then Me
TTITLE3=Pachabel's Skanon
TTITLE4=Menace II Society
TTITLE5=The Great Date Skatastrophe
TTITLE6=S.S.
TTITLE7=It's What You Did
TTITLE8=Missing In Action
TTITLE9=Up The Bum
TTITLE10=What You Think About Me
EXTD=
EXTT0=
EXTT1=
EXTT2=
EXTT3=
EXTT4=
EXTT5=
EXTT6=
EXTT7=
EXTT8=
EXTT9=
EXTT10=
PLAYORDER=
